<?xml version="1.0" encoding="UTF-8"?>
<svg width="1440px" height="255px" viewBox="0 0 1440 255" version="1.1" xmlns="http://www.w3.org/2000/svg" xmlns:xlink="http://www.w3.org/1999/xlink">
    <!-- Generator: Sketch 53.2 (72643) - https://sketchapp.com -->
    <title>mdpi/footer</title>
    <desc>Created with Sketch.</desc>
    <defs>
        <path d="M26.3055833,12.2517083 L26.3055833,18.7501111 L22.9971806,18.7501111 L22.9971806,13.0113194 C22.9971806,11.3180833 22.2771389,10.7958889 21.3485556,10.7958889 C20.3668056,10.7958889 19.4043056,11.5345694 19.4043056,13.0534861 L19.4043056,18.7501111 L16.0959028,18.7501111 L16.0959028,8.24297222 L19.2776528,8.24297222 L19.2776528,9.69879167 L19.3198194,9.69879167 C19.6400417,9.05193056 20.7574583,7.94765278 22.4644444,7.94765278 C24.3106111,7.94765278 26.3055833,9.04230556 26.3055833,12.2517083 Z M34.6426667,12.9902361 L38.8634583,18.7501111 L34.753125,18.7501111 L31.3131806,13.7075278 L31.2497778,13.7075278 L31.2497778,18.7501111 L27.941375,18.7501111 L27.941375,3.25263889 L31.2497778,3.25263889 L31.2497778,12.5048611 L31.3131806,12.5048611 L34.6687917,8.24297222 L38.6946389,8.24297222 L34.6426667,12.9902361 Z M55.7130139,16.1761111 C54.3746806,16.1761111 53.1468056,15.2012361 53.1468056,13.454375 C53.1468056,11.7764167 54.322125,10.7748056 55.7130139,10.7748056 C57.0516528,10.7748056 58.3224583,11.8146111 58.3224583,13.4754583 C58.3224583,15.1121667 57.025375,16.1761111 55.7130139,16.1761111 Z M58.0984861,9.36130556 L58.0563194,9.36130556 C57.4711806,8.6955 56.3760694,7.94765278 54.8482917,7.94765278 C52.2243333,7.94765278 49.8885139,10.0067917 49.8885139,13.454375 C49.8885139,17.3146111 52.5809167,19.0455833 54.8904583,19.0455833 C56.7962083,19.0455833 57.9296667,18.0785 58.3305556,17.3787778 L58.372875,17.3787778 L58.372875,18.7501111 L61.4067361,18.7501111 L61.4067361,3.25263889 L58.0984861,3.25263889 L58.0984861,9.36130556 Z M41.3564861,12.293875 C41.4308889,11.1781389 42.3199028,10.2895833 43.6861944,10.2895833 C45.1270417,10.2895833 45.8160694,11.1781389 45.8160694,12.293875 L41.3564861,12.293875 Z M43.7720556,7.90533333 C40.8507917,7.90533333 38.1515139,9.91130556 38.1515139,13.5388611 C38.1515139,17.1873472 40.8364306,19.08775 43.8767083,19.08775 C46.1660833,19.08775 47.7389306,18.027625 48.5986111,16.8513889 L46.2924306,15.3703611 C45.9005556,15.8505417 45.2260417,16.4292639 43.9637917,16.4292639 C42.5719861,16.4292639 41.6547083,15.6285556 41.4134722,14.7687222 C41.3569444,14.5672083 41.3564861,14.4459028 41.3564861,14.4459028 L48.97475,14.4459028 C48.9886528,14.3194028 48.9958333,13.9785556 48.9958333,13.6231944 C48.9958333,9.91130556 46.6946944,7.90533333 43.7720556,7.90533333 Z M3.50395833,15.6064028 L9.52447222,15.6064028 L9.52447222,18.7501111 L0,18.7501111 L0,3.25263889 L3.50395833,3.25263889 L3.50395833,15.6064028 Z M14.5788194,4.88063889 C14.5788194,5.97758333 13.7247917,6.77920833 12.6713889,6.77920833 C11.6178333,6.77920833 10.7638056,5.97758333 10.7638056,4.88063889 C10.7638056,3.78384722 11.6178333,2.98130556 12.6713889,2.98130556 C13.7247917,2.98130556 14.5788194,3.78384722 14.5788194,4.88063889 Z M11.0171111,18.7421667 L14.3255139,18.7421667 L14.3255139,8.23502778 L11.0171111,8.23502778 L11.0171111,18.7421667 Z M83.4073472,18.7502639 L80.0998611,18.7502639 L80.0998611,13.0113194 C80.0998611,11.3180833 79.3799722,10.7960417 78.4516944,10.7960417 C77.47025,10.7960417 76.5082083,11.5345694 76.5082083,13.0536389 L76.5082083,18.7502639 L73.2007222,18.7502639 L73.2007222,8.243125 L76.3815556,8.243125 L76.3815556,9.69879167 L76.4237222,9.69879167 C76.7437917,9.05193056 77.8609028,7.94765278 79.5674306,7.94765278 C81.4129861,7.94765278 83.4073472,9.04245833 83.4073472,12.2518611 L83.4073472,18.7502639 Z M69.5600278,6.77905556 C68.5069306,6.77905556 67.6532083,5.97758333 67.6532083,4.88063889 C67.6532083,3.78369444 68.5069306,2.98130556 69.5600278,2.98130556 C70.6132778,2.98130556 71.467,3.78369444 71.467,4.88063889 C71.467,5.97758333 70.6132778,6.77905556 69.5600278,6.77905556 Z M67.9063611,18.7421667 L71.2136944,18.7421667 L71.2136944,8.23502778 L67.9063611,8.23502778 L67.9063611,18.7421667 Z M85.0330556,0 L66.2805,0 C65.3836944,0 64.6564722,0.727069444 64.6564722,1.62402778 L64.6564722,20.3759722 C64.6564722,21.2729306 65.3836944,22 66.2805,22 L85.0330556,22 C85.9300139,22 86.6570833,21.2729306 86.6570833,20.3759722 L86.6570833,1.62402778 C86.6570833,0.727069444 85.9300139,0 85.0330556,0 L85.0330556,0 Z" id="path-1"></path>
    </defs>
    <g id="Principle-Export" stroke="none" stroke-width="1" fill="none" fill-rule="evenodd">
        <g id="ownProfile" transform="translate(0.000000, -2975.000000)">
            <g id="footer" transform="translate(0.000000, 2975.000000)">
                <g>
                    <rect id="footerBG" fill="#F2F2F2" fill-rule="nonzero" x="0" y="0" width="1440" height="255"></rect>
                    <g id="settings" transform="translate(725.000000, 128.000000)">
                        <path d="M10,7 C8.34314575,7 7,8.34314575 7,10 C7,11.6568542 8.34314575,13 10,13 C11.6568542,13 13,11.6568542 13,10 C13,8.34314575 11.6568542,7 10,7 Z M10,12.13 C9.13759696,12.1340489 8.35785785,11.617666 8.02502119,10.8220687 C7.69218454,10.0264713 7.87194167,9.10868497 8.48032288,8.49743404 C9.08870409,7.88618311 10.0056343,7.70210899 10.8027892,8.031198 C11.599944,8.360287 12.1199905,9.13758745 12.12,10 C12.1226604,10.5639896 11.9004789,11.1057925 11.502613,11.505535 C11.1047472,11.9052776 10.5639959,12.1300063 10,12.13 Z M17.91,9.26 L20,7.38 L17.26,2.62 L14.6,3.5 C14.3291221,3.58842808 14.0333851,3.55709892 13.787047,3.41387912 C13.540709,3.27065931 13.3671682,3.02915256 13.31,2.75 L12.74,0 L7.26,0 L6.69,2.75 C6.63283179,3.02915256 6.45929104,3.27065931 6.21295297,3.41387912 C5.96661491,3.55709892 5.67087789,3.58842808 5.4,3.5 L2.74,2.62 L0,7.38 L2.09,9.25 C2.30186035,9.43969733 2.42293554,9.71062369 2.42293554,9.995 C2.42293554,10.2793763 2.30186035,10.5503027 2.09,10.74 L0,12.62 L2.74,17.38 L5.4,16.5 C5.67087789,16.4115719 5.96661491,16.4429011 6.21295297,16.5861209 C6.45929104,16.7293407 6.63283179,16.9708474 6.69,17.25 L7.26,20 L12.74,20 L13.31,17.25 C13.3671682,16.9708474 13.540709,16.7293407 13.787047,16.5861209 C14.0333851,16.4429011 14.3291221,16.4115719 14.6,16.5 L17.26,17.38 L20,12.62 L17.91,10.75 C17.6947496,10.560167 17.5714378,10.2870006 17.5714378,10 C17.5714378,9.71299942 17.6947496,9.43983304 17.91,9.25 L17.91,9.26 Z M16.4,15.12 L15.18,14.72 C14.4046521,14.4634439 13.55661,14.550596 12.8496492,14.9594869 C12.1426884,15.3683778 11.6442569,16.0599969 11.48,16.86 L11.22,18.12 L8.78,18.12 L8.52,16.86 C8.35574312,16.0599969 7.85731164,15.3683778 7.15035082,14.9594869 C6.44339,14.550596 5.59534787,14.4634439 4.82,14.72 L3.6,15.12 L2.38,13 L3.38,12.14 C3.98975377,11.5936903 4.33818445,10.8136904 4.33818445,9.995 C4.33818445,9.17630962 3.98975377,8.39630968 3.38,7.85 L2.38,7 L3.6,4.88 L4.82,5.28 C5.59534787,5.53655606 6.44339,5.44940396 7.15035082,5.0405131 C7.85731164,4.63162225 8.35574312,3.94000313 8.52,3.14 L8.78,1.88 L11.22,1.88 L11.48,3.14 C11.6442569,3.94000313 12.1426884,4.63162225 12.8496492,5.0405131 C13.55661,5.44940396 14.4046521,5.53655606 15.18,5.28 L16.4,4.88 L17.62,7 L16.62,7.86 C16.0102462,8.40630968 15.6618155,9.18630962 15.6618155,10.005 C15.6618155,10.8236904 16.0102462,11.6036903 16.62,12.15 L17.62,13.01 L16.4,15.12 Z" id="settingIcon" fill="#0077B5" fill-rule="nonzero"></path>
                        <text id="Manage-your-account" font-family="SourceSansPro-Semibold, Source Sans Pro" font-size="16" font-weight="500" line-spacing="10" letter-spacing="0.1155556">
                            <tspan x="28" y="20" fill="#283D4A">Manage your account and privacy</tspan>
                            <tspan x="265.038224" y="25.407959" font-family="SourceSansPro-Regular, Source Sans Pro" font-weight="normal" fill="#8D8D8D"></tspan>
                            <tspan x="28.32" y="38.1760254" font-family="SourceSansPro-Regular, Source Sans Pro" font-weight="normal" fill="#8D8D8D">Go to your Settings</tspan>
                        </text>
                    </g>
                    <g id="logo/big" transform="translate(185.000000, 24.000000)">
                        <g id="bigLogo" transform="translate(0.000000, 0.000000)">
                            <mask id="mask-2" fill="white">
                                <use xlink:href="#path-1"></use>
                            </mask>
                            <g id="Fill-1"></g>
                            <rect id="blue" fill="#0077B5" fill-rule="nonzero" mask="url(#mask-2)" x="63.7083333" y="0" width="23.0694444" height="22"></rect>
                            <rect id="blue" fill="#000000" fill-rule="nonzero" mask="url(#mask-2)" x="0" y="0" width="62.7916667" height="22"></rect>
                        </g>
                    </g>
                    <text id="About-Careers-Advert" font-family="SourceSansPro-Regular, Source Sans Pro" font-size="16" font-weight="normal" letter-spacing="0.1155556" fill="#283D4A">
                        <tspan x="185" y="86">About</tspan>
                        <tspan x="185" y="114">Careers</tspan>
                        <tspan x="185" y="142">Advertising</tspan>
                        <tspan x="185" y="170">Small Business</tspan>
                    </text>
                    <text id="LinkedIn-Corporation" font-family="SourceSansPro-Regular, Source Sans Pro" font-size="16" font-weight="normal" letter-spacing="0.1155556" fill="#8D8D8D">
                        <tspan x="185" y="214">LinkedIn Corporation © 2019</tspan>
                    </text>
                    <g id="questions" transform="translate(725.000000, 72.000000)">
                        <text id="Questions?-Visit-our" font-family="SourceSansPro-Semibold, Source Sans Pro" font-size="16" font-weight="500" line-spacing="10" letter-spacing="0.1155556">
                            <tspan x="28" y="20" fill="#283D4A">Questions?</tspan>
                            <tspan x="108.659556" y="25.407959" font-family="SourceSansPro-Regular, Source Sans Pro" font-weight="normal" fill="#8D8D8D"></tspan>
                            <tspan x="28.32" y="38.1760254" font-family="SourceSansPro-Regular, Source Sans Pro" font-weight="normal" fill="#8D8D8D">Visit our Help Center</tspan>
                        </text>
                        <path d="M10,0 C4.5,0 0,4.5 0,10 C0,15.5 4.5,20 10,20 C15.5,20 20,15.5 20,10 C20,4.5 15.5,0 10,0 Z M10,18.2 C5.5,18.2 1.8,14.5 1.8,10 C1.8,5.5 5.5,1.8 10,1.8 C14.5,1.8 18.2,5.5 18.2,10 C18.2,14.5 14.5,18.2 10,18.2 Z M9,14 L11,14 L11,16 L9,16 L9,14 Z M14,7.3 L14,8 C14,9.7 12.7,10.9 11,10.9 L11,12 L9,12 L9,11 C9,9.9 9.9,9 11,9 L11.3,9 C11.8,9 12.2,8.6 12.2,8.1 L12.2,6.8 C12.2,6.3 11.8,5.9 11.3,5.9 L8.7,5.9 C8.2,5.9 7.8,6.3 7.8,6.8 L7.8,8 L6,8 L6,7.3 C6,5.5 7.5,4 9.3,4 L10.8,4 C12.5,4 14,5.5 14,7.3 Z" id="questionIcon" fill="#0077B5" fill-rule="nonzero"></path>
                    </g>
                    <text id="Talent-Solutions-Mar" font-family="SourceSansPro-Regular, Source Sans Pro" font-size="16" font-weight="normal" letter-spacing="0.1155556" fill="#283D4A">
                        <tspan x="365" y="86">Talent Solutions</tspan>
                        <tspan x="365" y="114">Marketing Solutions</tspan>
                        <tspan x="365" y="142">Sales Solutions</tspan>
                        <tspan x="365" y="170">Safety Center</tspan>
                    </text>
                    <text id="Community-Guidelines" font-family="SourceSansPro-Regular, Source Sans Pro" font-size="16" font-weight="normal" letter-spacing="0.1155556" fill="#283D4A">
                        <tspan x="545" y="86">Community Guidelines</tspan>
                        <tspan x="545" y="114">Privacy &amp; Terms</tspan>
                        <tspan x="545" y="142">Mobile</tspan>
                    </text>
                    <g id="selectLanguage" transform="translate(1085.000000, 70.000000)">
                        <g id="button" transform="translate(0.000000, 26.000000)">
                            <rect id="buttonBG" stroke="#0077B5" fill-rule="nonzero" x="0" y="0" width="170" height="38" rx="2"></rect>
                            <text id="buttonText" font-family="SourceSansPro-Semibold, Source Sans Pro" font-size="16" font-weight="500" letter-spacing="0.1155556" fill="#0077B5">
                                <tspan x="27.4537774" y="24">English (English)</tspan>
                            </text>
                        </g>
                        <text id="Select-Language" font-family="SourceSansPro-Regular, Source Sans Pro" font-size="16" font-weight="normal" letter-spacing="0.1155556" fill="#8D8D8D">
                            <tspan x="0" y="16">Select Language</tspan>
                        </text>
                    </g>
                </g>
            </g>
        </g>
    </g>
</svg>