<?xml version="1.0" encoding="UTF-8"?>
<svg width="33px" height="33px" viewBox="0 0 33 33" version="1.1" xmlns="http://www.w3.org/2000/svg" xmlns:xlink="http://www.w3.org/1999/xlink">
    <!-- Generator: Sketch 53.2 (72643) - https://sketchapp.com -->
    <title>mdpi/logo</title>
    <desc>Created with Sketch.</desc>
    <g id="Symbols" stroke="none" stroke-width="1" fill="none" fill-rule="evenodd">
        <g id="navBar" transform="translate(-187.000000, -8.000000)">
            <g id="logo/small">
                <g transform="translate(187.000000, 8.000000)">
                    <rect id="whiteFill" fill="#FFFFFF" fill-rule="nonzero" x="2.73103448" y="3.4375" width="27.0827586" height="26.125"></rect>
                    <path d="M27.9321103,28.1251667 L23.0053241,28.1251667 L23.0053241,19.5169792 C23.0053241,16.9773542 21.9331655,16.1940625 20.5501241,16.1940625 C19.0883379,16.1940625 17.6547724,17.3018542 17.6547724,19.5802292 L17.6547724,28.1251667 L12.7277586,28.1251667 L12.7277586,12.3646875 L17.4661034,12.3646875 L17.4661034,14.5481875 L17.5289172,14.5481875 C18.0057103,13.5778958 19.6698207,11.9214792 22.2119586,11.9214792 C24.9612,11.9214792 27.9321103,13.5636875 27.9321103,18.3775625 L27.9321103,28.1251667 Z M7.3046069,10.1685833 C5.73562759,10.1685833 4.46410345,8.966375 4.46410345,7.32095833 C4.46410345,5.67554167 5.73562759,4.47195833 7.3046069,4.47195833 C8.87335862,4.47195833 10.1451103,5.67554167 10.1451103,7.32095833 C10.1451103,8.966375 8.87335862,10.1685833 7.3046069,10.1685833 Z M4.84121379,28.11325 L9.76822759,28.11325 L9.76822759,12.3525417 L4.84121379,12.3525417 L4.84121379,28.11325 Z M30.3540828,0 L2.41924138,0 C1.08308276,0 1.42108547e-14,1.09060417 1.42108547e-14,2.43604167 L1.42108547e-14,30.5639583 C1.42108547e-14,31.9093958 1.08308276,33 2.41924138,33 L30.3540828,33 C31.6902414,33 32.7733241,31.9093958 32.7733241,30.5639583 L32.7733241,2.43604167 C32.7733241,1.09060417 31.6902414,0 30.3540828,0 L30.3540828,0 Z" id="blueFill" fill="#0077B5" fill-rule="evenodd"></path>
                </g>
            </g>
        </g>
    </g>
</svg>