<?xml version="1.0" encoding="UTF-8"?>
<svg width="320px" height="60px" viewBox="0 0 320 60" version="1.1" xmlns="http://www.w3.org/2000/svg" xmlns:xlink="http://www.w3.org/1999/xlink">
    <!-- Generator: Sketch 53.2 (72643) - https://sketchapp.com -->
    <title>mdpi/navBarMobile</title>
    <desc>Created with Sketch.</desc>
    <g id="Page-1" stroke="none" stroke-width="1" fill="none" fill-rule="evenodd">
        <g id="Mobile" transform="translate(0.000000, -4628.000000)" fill-rule="nonzero">
            <g id="navBarMobile" transform="translate(0.000000, 4628.000000)">
                <rect id="navBarBG" fill="#283D4A" x="0" y="0" width="320" height="60"></rect>
                <g id="icons" transform="translate(22.000000, 20.000000)" fill="#FFFFFF">
                    <path d="M20,7.45 L10.85,1.26 C10.3402692,0.912459446 9.66973077,0.912459446 9.16,1.26 L0,7.45 L1.06,9 L2,8.37 L2,18 C2,18.5522847 2.44771525,19 3,19 L9,19 L9,14 L11,14 L11,19 L17,19 C17.5522847,19 18,18.5522847 18,18 L18,8.37 L18.94,9 L20,7.45 Z M16,17 L13,17 L13,13 C13,12.4477153 12.5522847,12 12,12 L8,12 C7.44771525,12 7,12.4477153 7,13 L7,17 L4,17 L4,6.89 L10,2.89 L16,6.89 L16,17 Z" id="homeIcon"></path>
                    <path d="M84.74,12.2 L83,11.54 L83,10.86 L83.25,10.45 C83.739556,9.66006879 83.9992722,8.74933088 84,7.82 L84,7 C84,5.34314575 82.6568542,4 81,4 C79.3431458,4 78,5.34314575 78,7 L78,7.82 C78.0007278,8.74933088 78.260444,9.66006879 78.75,10.45 L79,10.86 L79,11.54 L78,11.91 C77.8145071,11.8012286 77.6205452,11.7075918 77.42,11.63 L74.97,10.63 L74.97,8.83 C75.6293676,7.66002564 75.9835859,6.34288353 76,5 L76,4 C76,1.790861 74.209139,0 72,0 C69.790861,-2.22044605e-16 68,1.790861 68,4 L68,5 C68.0021949,6.35044607 68.346214,7.67835991 69,8.86 L69,10.7 L66.55,11.7 C65.0388185,12.287425 64.0317104,13.7289719 64,15.35 L64,18 C64,18.5522847 64.4477153,19 65,19 L86,19 C86.5522847,19 87,18.5522847 87,18 L87,15.47 C86.9987621,14.016461 86.0992591,12.7149677 84.74,12.2 Z M80,6.75 C80,6.19771525 80.4477153,5.75 81,5.75 C81.5522847,5.75 82,6.19771525 82,6.75 L82,8.19 C81.9997666,8.70109049 81.8689641,9.20364765 81.62,9.65 L81.29,10.25 C81.2460257,10.3303701 81.1616135,10.3802501 81.07,10.38 L80.93,10.38 C80.8383865,10.3802501 80.7539743,10.3303701 80.71,10.25 L80.38,9.65 C80.1310359,9.20364765 80.0002334,8.70109049 80,8.19 L80,6.75 L80,6.75 Z M70,3.85 C70,2.7454305 70.8954305,1.85 72,1.85 C73.1045695,1.85 74,2.7454305 74,3.85 L74,5.28 C73.9997965,6.26738352 73.7559194,7.23945687 73.29,8.11 L73,8.72 C72.8267616,9.04534717 72.4885937,9.24901647 72.12,9.25 L71.92,9.25 C71.5371238,9.26416458 71.179813,9.05832245 71,8.72 L70.67,8.11 C70.2179675,7.23588501 69.9878755,6.26400375 70,5.28 L70,3.85 Z M78.0000042,17 L65.9999991,17 L66,15.25 C65.9992066,14.4303923 66.4985579,13.6932546 67.26,13.39 L71,11.92 L71,10.92 C71.320674,11.0364225 71.6588568,11.0972954 72,11.1 L72,11.1 C72.3411432,11.0972954 72.679326,11.0364225 73,10.92 L73,11.92 L76.72,13.34 C77.4927106,13.6381652 78.0016953,14.3817602 78,15.21 L78.0000042,17 Z M85,17 L80,17 L80,15.35 C79.995717,14.6465692 79.8060049,13.9567073 79.45,13.35 L80.5,12.95 L80.5,12.07 C80.6313091,12.1000955 80.765323,12.1168473 80.9,12.12 L81.1,12.12 C81.234677,12.1168473 81.3686909,12.1000955 81.5,12.07 L81.5,12.95 L84.03,13.95 C84.6244317,14.1601314 85.0240157,14.719549 85.03,15.35 L85.03,17 L85,17 Z" id="networkIcon"></path>
                    <path d="M150,5 L146,5 L146,4 C146,2.34314575 144.656854,1 143,1 L139,1 C137.343146,1 136,2.34314575 136,4 L136,5 L132,5 C131.447715,5 131,5.44771525 131,6 L131,17 C131,17.5522847 131.447715,18 132,18 L150,18 C150.552285,18 151,17.5522847 151,17 L151,6 C151,5.44771525 150.552285,5 150,5 Z M138,4 C138,3.44771525 138.447715,3 139,3 L143,3 C143.552285,3 144,3.44771525 144,4 L144,5 L138,5 L138,4 Z M149,16 L133,16 L133,11 L149,11 L149,16 Z M149,10 L133,10 L133,7 L149,7 L149,10 Z" id="jobsIcon"></path>
                    <path d="M213,6 L200,6 C199.447715,6 199,6.44771525 199,7 L199,17 C199,17.5522847 199.447715,18 200,18 L210,18 L214,21 L214,7 C214,6.44771525 213.552285,6 213,6 Z M212,17.11 L210.52,16 L201,16 L201,8 L212,8 L212,17.11 Z M204,13 L209,13 L209,14 L204,14 L204,13 Z M196,11 L197,11 L197,13 L195,13 C194.447715,13 194,12.5522847 194,12 L194,2 C194,1.44771525 194.447715,1 195,1 L208,1 C208.552285,1 209,1.44771525 209,2 L209,4 L207,4 L207,3 L196,3 L196,11 Z M210,11 L203,11 L203,10 L210,10 L210,11 Z" id="messagingIcon"></path>
                    <path d="M275.940067,17 L274.000067,12.49 C274.000067,12.49 273.590067,9.43 273.200067,6.43 C272.784443,3.32296543 270.134776,1.00236971 267.000067,1 L267.000067,1 C263.858221,0.998023405 261.201618,3.3252246 260.790067,6.44 L260.000067,12.49 L258.060067,17 C258.021257,17.0882896 258.000842,17.1835603 258.000067,17.28 C257.997391,17.4806393 258.075226,17.6739839 258.21617,17.8168064 C258.357113,17.959629 258.54941,18.0400178 258.750067,18.04 L265.000067,18.04 C265.000067,19.1445695 265.895497,20.04 267.000067,20.04 C268.104636,20.04 269.000067,19.1445695 269.000067,18.04 L275.270067,18.04 C275.519309,18.0378278 275.750712,17.9103275 275.885701,17.7007932 C276.020689,17.4912589 276.041124,17.2278462 275.940067,17 Z M267.000067,2.75 L267.000067,2.75 C269.199845,2.75076016 271.059436,4.37950462 271.350067,6.56 C271.630067,8.66 271.910067,10.91 272.050067,12 L262.000067,12 L262.650067,6.56 C262.940698,4.37950462 264.800288,2.75076016 267.000067,2.75 Z M260.520067,16 L261.820067,13 L272.180067,13 L273.480067,16 L260.480067,16 L260.520067,16 Z" id="notifIcon"></path>
                </g>
            </g>
        </g>
    </g>
</svg>