<svg viewBox="0 0 24 24" width="24px" height="24px" x="0" y="0" preserveAspectRatio="xMinYMin meet" class="artdeco-icon" focusable="false"><path d="M12,2C6.5,2,2,6.5,2,12s4.5,10,10,10c5.5,0,10-4.5,10-10S17.5,2,12,2zM12,20.2c-4.5,0-8.2-3.7-8.2-8.2S7.5,3.8,12,3.8c4.5,0,8.2,3.7,8.2,8.2S16.5,20.2,12,20.2zM11,16h2v2h-2V16zM16,9.3V10c0,1.7-1.3,2.9-3,2.9V14h-2v-1c0-1.1,0.9-2,2-2h0.3c0.5,0,0.9-0.4,0.9-0.9v-1.3c0-0.5-0.4-0.9-0.9-0.9h-2.6c-0.5,0-0.9,0.4-0.9,0.9V10H8V9.3C8,7.5,9.5,6,11.3,6h1.5C14.5,6,16,7.5,16,9.3z" class="large-icon" style="fill: currentColor"></path></svg>